<svg xmlns="http://www.w3.org/2000/svg" xmlns:xlink="http://www.w3.org/1999/xlink" version="1.1" x="0px" y="0px" viewBox="0 0 64 80" style="enable-background:new 0 0 64 64;" xml:space="preserve"><g><path d="M52.88,46.67H49.4l-1.04-6.22H15.64l-1.04,6.22h-3.48V21.92h41.75V46.67z M50.34,45.64h1.44v-7.2h-2.65L50.34,45.64z    M12.22,45.64h1.44l1.21-7.2h-2.65V45.64z M15.82,39.42h32.36l-0.16-0.98H15.98L15.82,39.42z M47.84,37.41h3.93V22.96H12.22v14.45   H47.84z M49.51,35.27H14.4v-10.3h35.11V35.27z M39.23,34.24h9.18V30.7h-9.18V34.24z M33.96,34.24h4.07V33.2h-4.07V34.24z    M32.46,34.24h0.4v-2.07h0.93V30.1h4.24V26H25.96v2.55l3.22-0.5l0.27,1.47l2.11-0.33L32.46,34.24z M30.31,34.24h1.04l-0.69-3.85   l-1.02,0.16L30.31,34.24z M28,34.24h1.19l-0.9-5l-1.21,0.19L28,34.24z M25.96,34.24h0.92l-0.92-4.81V34.24z M15.5,34.24h9.37V30.7   H15.5V34.24z M34.9,32.17h3.14v-1.04H34.9V32.17z M39.13,29.67h9.28V26h-9.28V29.67z M15.5,29.67h9.37V26H15.5V29.67z M45.38,32.8   h-2.64v-1.04h2.64V32.8z M21.36,32.8h-2.64v-1.04h2.64V32.8z M45.38,28.6h-2.64v-1.04h2.64V28.6z M21.36,28.6h-2.64v-1.04h2.64   V28.6z"/></g><text x="0" y="79" fill="#000000" font-size="5px" font-weight="bold" font-family="'Helvetica Neue', Helvetica, Arial-Unicode, Arial, Sans-serif">Created by abdan syahkur firmansyah</text><text x="0" y="84" fill="#000000" font-size="5px" font-weight="bold" font-family="'Helvetica Neue', Helvetica, Arial-Unicode, Arial, Sans-serif">from the Noun Project</text></svg>